<svg width="512" height="275" viewBox="0 0 512 275" fill="none" xmlns="http://www.w3.org/2000/svg">
<g filter="url(#filter0_d_4243_157)">
<g filter="url(#filter1_d_4243_157)">
<rect x="40" y="38" width="432" height="193" rx="12" fill="white"/>
</g>
<circle cx="103" cy="98" r="32" fill="#DCF2ED"/>
<g clip-path="url(#clip0_4243_157)">
<path d="M98.7502 103.908L92.8427 98L90.8311 99.9975L98.7502 107.917L115.75 90.9167L113.753 88.9192L98.7502 103.908Z" fill="#20484F"/>
</g>
<path d="M155.44 87V72.1H165.34V74.5H158.16V78.32H164.94V80.72H158.16V84.6H165.34V87H155.44ZM170.395 87L166.115 76.12H168.975L172.075 84.68H171.015L174.135 76.12H176.995L172.715 87H170.395ZM183.567 87.24C182.501 87.24 181.527 86.9933 180.647 86.5C179.781 86.0067 179.087 85.3333 178.567 84.48C178.061 83.6267 177.807 82.6533 177.807 81.56C177.807 80.4667 178.061 79.4933 178.567 78.64C179.087 77.7867 179.781 77.1133 180.647 76.62C181.514 76.1267 182.487 75.88 183.567 75.88C184.634 75.88 185.601 76.1267 186.467 76.62C187.334 77.1133 188.021 77.7867 188.527 78.64C189.047 79.48 189.307 80.4533 189.307 81.56C189.307 82.6533 189.047 83.6267 188.527 84.48C188.007 85.3333 187.314 86.0067 186.447 86.5C185.581 86.9933 184.621 87.24 183.567 87.24ZM183.567 84.84C184.154 84.84 184.667 84.7 185.107 84.42C185.561 84.14 185.914 83.7533 186.167 83.26C186.434 82.7533 186.567 82.1867 186.567 81.56C186.567 80.92 186.434 80.36 186.167 79.88C185.914 79.3867 185.561 79 185.107 78.72C184.667 78.4267 184.154 78.28 183.567 78.28C182.967 78.28 182.441 78.4267 181.987 78.72C181.534 79 181.174 79.3867 180.907 79.88C180.654 80.36 180.527 80.92 180.527 81.56C180.527 82.1867 180.654 82.7533 180.907 83.26C181.174 83.7533 181.534 84.14 181.987 84.42C182.441 84.7 182.967 84.84 183.567 84.84ZM191.294 87V71.86H193.914V87H191.294ZM200.213 87.24C199.373 87.24 198.64 87.0533 198.013 86.68C197.4 86.3067 196.927 85.7867 196.593 85.12C196.273 84.4533 196.113 83.6733 196.113 82.78V76.12H198.733V82.56C198.733 83.0133 198.82 83.4133 198.993 83.76C199.18 84.0933 199.44 84.36 199.773 84.56C200.12 84.7467 200.507 84.84 200.933 84.84C201.36 84.84 201.74 84.7467 202.073 84.56C202.407 84.36 202.667 84.0867 202.853 83.74C203.04 83.3933 203.133 82.98 203.133 82.5V76.12H205.753V87H203.273V84.86L203.493 85.24C203.24 85.9067 202.82 86.4067 202.233 86.74C201.66 87.0733 200.987 87.24 200.213 87.24ZM213.429 87.24C212.349 87.24 211.375 86.9933 210.509 86.5C209.655 85.9933 208.982 85.3133 208.489 84.46C207.995 83.5933 207.749 82.62 207.749 81.54C207.749 80.46 207.995 79.4933 208.489 78.64C208.982 77.7867 209.655 77.1133 210.509 76.62C211.375 76.1267 212.349 75.88 213.429 75.88C214.202 75.88 214.922 76.02 215.589 76.3C216.255 76.5667 216.829 76.94 217.309 77.42C217.802 77.8867 218.155 78.4467 218.369 79.1L216.069 80.1C215.869 79.5533 215.529 79.1133 215.049 78.78C214.582 78.4467 214.042 78.28 213.429 78.28C212.855 78.28 212.342 78.42 211.889 78.7C211.449 78.98 211.102 79.3667 210.849 79.86C210.595 80.3533 210.469 80.92 210.469 81.56C210.469 82.2 210.595 82.7667 210.849 83.26C211.102 83.7533 211.449 84.14 211.889 84.42C212.342 84.7 212.855 84.84 213.429 84.84C214.055 84.84 214.602 84.6733 215.069 84.34C215.535 84.0067 215.869 83.56 216.069 83L218.369 84.04C218.155 84.6533 217.809 85.2067 217.329 85.7C216.849 86.18 216.275 86.56 215.609 86.84C214.942 87.1067 214.215 87.24 213.429 87.24ZM213.629 91.74C213.282 91.74 212.889 91.68 212.449 91.56C212.022 91.4533 211.662 91.2933 211.369 91.08L211.929 89.58C212.129 89.7133 212.349 89.8133 212.589 89.88C212.829 89.96 213.062 90 213.289 90C213.582 90 213.809 89.94 213.969 89.82C214.129 89.7 214.209 89.5333 214.209 89.32C214.209 89.0667 214.049 88.86 213.729 88.7C213.409 88.5533 212.942 88.4467 212.329 88.38L212.749 86.8H214.289L214.109 87.6C214.802 87.6933 215.349 87.9067 215.749 88.24C216.149 88.5867 216.349 89.0133 216.349 89.52C216.349 90.2 216.102 90.74 215.609 91.14C215.115 91.54 214.455 91.74 213.629 91.74ZM223.618 87.24C222.858 87.24 222.198 87.1133 221.638 86.86C221.078 86.6067 220.644 86.2467 220.338 85.78C220.031 85.3 219.878 84.7467 219.878 84.12C219.878 83.52 220.011 82.9867 220.278 82.52C220.544 82.04 220.958 81.64 221.518 81.32C222.078 81 222.784 80.7733 223.638 80.64L227.198 80.06V82.06L224.138 82.58C223.618 82.6733 223.231 82.84 222.978 83.08C222.724 83.32 222.598 83.6333 222.598 84.02C222.598 84.3933 222.738 84.6933 223.018 84.92C223.311 85.1333 223.671 85.24 224.098 85.24C224.644 85.24 225.124 85.1267 225.538 84.9C225.964 84.66 226.291 84.3333 226.518 83.92C226.758 83.5067 226.878 83.0533 226.878 82.56V79.76C226.878 79.2933 226.691 78.9067 226.318 78.6C225.958 78.28 225.478 78.12 224.878 78.12C224.318 78.12 223.818 78.2733 223.378 78.58C222.951 78.8733 222.638 79.2667 222.438 79.76L220.298 78.72C220.511 78.1467 220.844 77.6533 221.298 77.24C221.764 76.8133 222.311 76.48 222.938 76.24C223.564 76 224.244 75.88 224.978 75.88C225.871 75.88 226.658 76.0467 227.338 76.38C228.018 76.7 228.544 77.1533 228.918 77.74C229.304 78.3133 229.498 78.9867 229.498 79.76V87H227.018V85.14L227.578 85.1C227.298 85.5667 226.964 85.96 226.578 86.28C226.191 86.5867 225.751 86.8267 225.258 87C224.764 87.16 224.218 87.24 223.618 87.24ZM226.438 74.2C226.078 74.2 225.771 74.1467 225.518 74.04C225.278 73.92 225.071 73.7933 224.898 73.66C224.724 73.5133 224.551 73.3867 224.378 73.28C224.204 73.16 224.004 73.1 223.778 73.1C223.551 73.1 223.378 73.1867 223.258 73.36C223.138 73.52 223.078 73.7733 223.078 74.12H221.058C221.058 73.0533 221.298 72.2733 221.778 71.78C222.258 71.2733 222.838 71.02 223.518 71.02C223.891 71.02 224.204 71.0733 224.458 71.18C224.711 71.2867 224.931 71.4133 225.118 71.56C225.304 71.7067 225.478 71.8333 225.638 71.94C225.811 72.0467 225.998 72.1 226.198 72.1C226.464 72.1 226.651 72.0133 226.758 71.84C226.864 71.6533 226.918 71.4067 226.918 71.1H228.938C228.924 72.1133 228.678 72.8867 228.198 73.42C227.718 73.94 227.131 74.2 226.438 74.2ZM237.239 87.24C236.173 87.24 235.199 86.9933 234.319 86.5C233.453 86.0067 232.759 85.3333 232.239 84.48C231.733 83.6267 231.479 82.6533 231.479 81.56C231.479 80.4667 231.733 79.4933 232.239 78.64C232.759 77.7867 233.453 77.1133 234.319 76.62C235.186 76.1267 236.159 75.88 237.239 75.88C238.306 75.88 239.273 76.1267 240.139 76.62C241.006 77.1133 241.693 77.7867 242.199 78.64C242.719 79.48 242.979 80.4533 242.979 81.56C242.979 82.6533 242.719 83.6267 242.199 84.48C241.679 85.3333 240.986 86.0067 240.119 86.5C239.253 86.9933 238.293 87.24 237.239 87.24ZM237.239 84.84C237.826 84.84 238.339 84.7 238.779 84.42C239.233 84.14 239.586 83.7533 239.839 83.26C240.106 82.7533 240.239 82.1867 240.239 81.56C240.239 80.92 240.106 80.36 239.839 79.88C239.586 79.3867 239.233 79 238.779 78.72C238.339 78.4267 237.826 78.28 237.239 78.28C236.639 78.28 236.113 78.4267 235.659 78.72C235.206 79 234.846 79.3867 234.579 79.88C234.326 80.36 234.199 80.92 234.199 81.56C234.199 82.1867 234.326 82.7533 234.579 83.26C234.846 83.7533 235.206 84.14 235.659 84.42C236.113 84.7 236.639 84.84 237.239 84.84ZM248.741 87V72.1H254.301C255.314 72.1 256.207 72.2867 256.981 72.66C257.767 73.02 258.381 73.5533 258.821 74.26C259.261 74.9533 259.481 75.8 259.481 76.8C259.481 77.7867 259.254 78.6333 258.801 79.34C258.361 80.0333 257.754 80.5667 256.981 80.94C256.207 81.3133 255.314 81.5 254.301 81.5H251.461V87H248.741ZM251.461 79.1H254.341C254.834 79.1 255.261 79.0067 255.621 78.82C255.981 78.62 256.261 78.3467 256.461 78C256.661 77.6533 256.761 77.2533 256.761 76.8C256.761 76.3333 256.661 75.9333 256.461 75.6C256.261 75.2533 255.981 74.9867 255.621 74.8C255.261 74.6 254.834 74.5 254.341 74.5H251.461V79.1ZM266.419 87.24C265.352 87.24 264.379 86.9933 263.499 86.5C262.632 86.0067 261.939 85.3333 261.419 84.48C260.912 83.6267 260.659 82.6533 260.659 81.56C260.659 80.4667 260.912 79.4933 261.419 78.64C261.939 77.7867 262.632 77.1133 263.499 76.62C264.366 76.1267 265.339 75.88 266.419 75.88C267.486 75.88 268.452 76.1267 269.319 76.62C270.186 77.1133 270.872 77.7867 271.379 78.64C271.899 79.48 272.159 80.4533 272.159 81.56C272.159 82.6533 271.899 83.6267 271.379 84.48C270.859 85.3333 270.166 86.0067 269.299 86.5C268.432 86.9933 267.472 87.24 266.419 87.24ZM266.419 84.84C267.006 84.84 267.519 84.7 267.959 84.42C268.412 84.14 268.766 83.7533 269.019 83.26C269.286 82.7533 269.419 82.1867 269.419 81.56C269.419 80.92 269.286 80.36 269.019 79.88C268.766 79.3867 268.412 79 267.959 78.72C267.519 78.4267 267.006 78.28 266.419 78.28C265.819 78.28 265.292 78.4267 264.839 78.72C264.386 79 264.026 79.3867 263.759 79.88C263.506 80.36 263.379 80.92 263.379 81.56C263.379 82.1867 263.506 82.7533 263.759 83.26C264.026 83.7533 264.386 84.14 264.839 84.42C265.292 84.7 265.819 84.84 266.419 84.84ZM274.146 87V71.86H276.766V87H274.146ZM278.945 87V76.12H281.565V87H278.945ZM278.965 74.2L280.265 70.74H283.665L281.545 74.2H278.965ZM288.696 87.12C287.469 87.12 286.516 86.7867 285.836 86.12C285.169 85.44 284.836 84.4867 284.836 83.26V78.46H282.956V76.12H283.156C283.689 76.12 284.102 75.98 284.396 75.7C284.689 75.42 284.836 75.0133 284.836 74.48V73.64H287.456V76.12H289.956V78.46H287.456V83.12C287.456 83.48 287.516 83.7867 287.636 84.04C287.769 84.2933 287.969 84.4867 288.236 84.62C288.516 84.7533 288.869 84.82 289.296 84.82C289.389 84.82 289.496 84.8133 289.616 84.8C289.749 84.7867 289.876 84.7733 289.996 84.76V87C289.809 87.0267 289.596 87.0533 289.356 87.08C289.116 87.1067 288.896 87.12 288.696 87.12ZM291.997 87V76.12H294.617V87H291.997ZM291.997 74.9V72.1H294.617V74.9H291.997ZM302.276 87.24C301.196 87.24 300.223 86.9933 299.356 86.5C298.503 85.9933 297.83 85.3133 297.336 84.46C296.843 83.5933 296.596 82.62 296.596 81.54C296.596 80.46 296.843 79.4933 297.336 78.64C297.83 77.7867 298.503 77.1133 299.356 76.62C300.223 76.1267 301.196 75.88 302.276 75.88C303.05 75.88 303.77 76.02 304.436 76.3C305.103 76.5667 305.676 76.94 306.156 77.42C306.65 77.8867 307.003 78.4467 307.216 79.1L304.916 80.1C304.716 79.5533 304.376 79.1133 303.896 78.78C303.43 78.4467 302.89 78.28 302.276 78.28C301.703 78.28 301.19 78.42 300.736 78.7C300.296 78.98 299.95 79.3667 299.696 79.86C299.443 80.3533 299.316 80.92 299.316 81.56C299.316 82.2 299.443 82.7667 299.696 83.26C299.95 83.7533 300.296 84.14 300.736 84.42C301.19 84.7 301.703 84.84 302.276 84.84C302.903 84.84 303.45 84.6733 303.916 84.34C304.383 84.0067 304.716 83.56 304.916 83L307.216 84.04C307.003 84.6533 306.656 85.2067 306.176 85.7C305.696 86.18 305.123 86.56 304.456 86.84C303.79 87.1067 303.063 87.24 302.276 87.24ZM312.465 87.24C311.705 87.24 311.045 87.1133 310.485 86.86C309.925 86.6067 309.492 86.2467 309.185 85.78C308.879 85.3 308.725 84.7467 308.725 84.12C308.725 83.52 308.859 82.9867 309.125 82.52C309.392 82.04 309.805 81.64 310.365 81.32C310.925 81 311.632 80.7733 312.485 80.64L316.045 80.06V82.06L312.985 82.58C312.465 82.6733 312.079 82.84 311.825 83.08C311.572 83.32 311.445 83.6333 311.445 84.02C311.445 84.3933 311.585 84.6933 311.865 84.92C312.159 85.1333 312.519 85.24 312.945 85.24C313.492 85.24 313.972 85.1267 314.385 84.9C314.812 84.66 315.139 84.3333 315.365 83.92C315.605 83.5067 315.725 83.0533 315.725 82.56V79.76C315.725 79.2933 315.539 78.9067 315.165 78.6C314.805 78.28 314.325 78.12 313.725 78.12C313.165 78.12 312.665 78.2733 312.225 78.58C311.799 78.8733 311.485 79.2667 311.285 79.76L309.145 78.72C309.359 78.1467 309.692 77.6533 310.145 77.24C310.612 76.8133 311.159 76.48 311.785 76.24C312.412 76 313.092 75.88 313.825 75.88C314.719 75.88 315.505 76.0467 316.185 76.38C316.865 76.7 317.392 77.1533 317.765 77.74C318.152 78.3133 318.345 78.9867 318.345 79.76V87H315.865V85.14L316.425 85.1C316.145 85.5667 315.812 85.96 315.425 86.28C315.039 86.5867 314.599 86.8267 314.105 87C313.612 87.16 313.065 87.24 312.465 87.24ZM329.482 87.24C328.362 87.24 327.382 86.9867 326.542 86.48C325.702 85.9733 325.048 85.2867 324.582 84.42C324.115 83.5533 323.882 82.5933 323.882 81.54C323.882 80.4467 324.115 79.48 324.582 78.64C325.062 77.7867 325.708 77.1133 326.522 76.62C327.348 76.1267 328.268 75.88 329.282 75.88C330.135 75.88 330.882 76.02 331.522 76.3C332.175 76.58 332.728 76.9667 333.182 77.46C333.635 77.9533 333.982 78.52 334.222 79.16C334.462 79.7867 334.582 80.4667 334.582 81.2C334.582 81.3867 334.568 81.58 334.542 81.78C334.528 81.98 334.495 82.1533 334.442 82.3H326.042V80.3H332.962L331.722 81.24C331.842 80.6267 331.808 80.08 331.622 79.6C331.448 79.12 331.155 78.74 330.742 78.46C330.342 78.18 329.855 78.04 329.282 78.04C328.735 78.04 328.248 78.18 327.822 78.46C327.395 78.7267 327.068 79.1267 326.842 79.66C326.628 80.18 326.548 80.8133 326.602 81.56C326.548 82.2267 326.635 82.82 326.862 83.34C327.102 83.8467 327.448 84.24 327.902 84.52C328.368 84.8 328.902 84.94 329.502 84.94C330.102 84.94 330.608 84.8133 331.022 84.56C331.448 84.3067 331.782 83.9667 332.022 83.54L334.142 84.58C333.928 85.1 333.595 85.56 333.142 85.96C332.688 86.36 332.148 86.6733 331.522 86.9C330.908 87.1267 330.228 87.24 329.482 87.24ZM347.342 87.24C346.276 87.24 345.289 87.0467 344.382 86.66C343.489 86.2733 342.702 85.7333 342.022 85.04C341.356 84.3467 340.836 83.5333 340.462 82.6C340.089 81.6667 339.902 80.6467 339.902 79.54C339.902 78.4333 340.082 77.4133 340.442 76.48C340.816 75.5333 341.336 74.72 342.002 74.04C342.682 73.3467 343.476 72.8133 344.382 72.44C345.289 72.0533 346.276 71.86 347.342 71.86C348.409 71.86 349.362 72.04 350.202 72.4C351.056 72.76 351.776 73.24 352.362 73.84C352.949 74.4267 353.369 75.0733 353.622 75.78L351.182 76.92C350.902 76.1733 350.429 75.56 349.762 75.08C349.096 74.5867 348.289 74.34 347.342 74.34C346.409 74.34 345.582 74.56 344.862 75C344.156 75.44 343.602 76.0467 343.202 76.82C342.816 77.5933 342.622 78.5 342.622 79.54C342.622 80.58 342.816 81.4933 343.202 82.28C343.602 83.0533 344.156 83.66 344.862 84.1C345.582 84.54 346.409 84.76 347.342 84.76C348.289 84.76 349.096 84.52 349.762 84.04C350.429 83.5467 350.902 82.9267 351.182 82.18L353.622 83.32C353.369 84.0267 352.949 84.68 352.362 85.28C351.776 85.8667 351.056 86.34 350.202 86.7C349.362 87.06 348.409 87.24 347.342 87.24ZM359.491 87.24C358.651 87.24 357.917 87.0533 357.291 86.68C356.677 86.3067 356.204 85.7867 355.871 85.12C355.551 84.4533 355.391 83.6733 355.391 82.78V76.12H358.011V82.56C358.011 83.0133 358.097 83.4133 358.271 83.76C358.457 84.0933 358.717 84.36 359.051 84.56C359.397 84.7467 359.784 84.84 360.211 84.84C360.637 84.84 361.017 84.7467 361.351 84.56C361.684 84.36 361.944 84.0867 362.131 83.74C362.317 83.3933 362.411 82.98 362.411 82.5V76.12H365.031V87H362.551V84.86L362.771 85.24C362.517 85.9067 362.097 86.4067 361.511 86.74C360.937 87.0733 360.264 87.24 359.491 87.24ZM367.466 87V71.86H370.086V87H367.466ZM377.465 87.12C376.238 87.12 375.285 86.7867 374.605 86.12C373.938 85.44 373.605 84.4867 373.605 83.26V78.46H371.725V76.12H371.925C372.458 76.12 372.872 75.98 373.165 75.7C373.458 75.42 373.605 75.0133 373.605 74.48V73.64H376.225V76.12H378.725V78.46H376.225V83.12C376.225 83.48 376.285 83.7867 376.405 84.04C376.538 84.2933 376.738 84.4867 377.005 84.62C377.285 84.7533 377.638 84.82 378.065 84.82C378.158 84.82 378.265 84.8133 378.385 84.8C378.518 84.7867 378.645 84.7733 378.765 84.76V87C378.578 87.0267 378.365 87.0533 378.125 87.08C377.885 87.1067 377.665 87.12 377.465 87.12ZM384.647 87.24C383.807 87.24 383.074 87.0533 382.447 86.68C381.834 86.3067 381.36 85.7867 381.027 85.12C380.707 84.4533 380.547 83.6733 380.547 82.78V76.12H383.167V82.56C383.167 83.0133 383.254 83.4133 383.427 83.76C383.614 84.0933 383.874 84.36 384.207 84.56C384.554 84.7467 384.94 84.84 385.367 84.84C385.794 84.84 386.174 84.7467 386.507 84.56C386.84 84.36 387.1 84.0867 387.287 83.74C387.474 83.3933 387.567 82.98 387.567 82.5V76.12H390.187V87H387.707V84.86L387.927 85.24C387.674 85.9067 387.254 86.4067 386.667 86.74C386.094 87.0733 385.42 87.24 384.647 87.24ZM392.622 87V76.12H395.082V78.54L394.882 78.18C395.136 77.3667 395.529 76.8 396.062 76.48C396.609 76.16 397.262 76 398.022 76H398.662V78.32H397.722C396.976 78.32 396.376 78.5533 395.922 79.02C395.469 79.4733 395.242 80.1133 395.242 80.94V87H392.622ZM403.403 87.24C402.643 87.24 401.983 87.1133 401.423 86.86C400.863 86.6067 400.429 86.2467 400.123 85.78C399.816 85.3 399.663 84.7467 399.663 84.12C399.663 83.52 399.796 82.9867 400.063 82.52C400.329 82.04 400.743 81.64 401.303 81.32C401.863 81 402.569 80.7733 403.423 80.64L406.983 80.06V82.06L403.923 82.58C403.403 82.6733 403.016 82.84 402.763 83.08C402.509 83.32 402.383 83.6333 402.383 84.02C402.383 84.3933 402.523 84.6933 402.803 84.92C403.096 85.1333 403.456 85.24 403.883 85.24C404.429 85.24 404.909 85.1267 405.323 84.9C405.749 84.66 406.076 84.3333 406.303 83.92C406.543 83.5067 406.663 83.0533 406.663 82.56V79.76C406.663 79.2933 406.476 78.9067 406.103 78.6C405.743 78.28 405.263 78.12 404.663 78.12C404.103 78.12 403.603 78.2733 403.163 78.58C402.736 78.8733 402.423 79.2667 402.223 79.76L400.083 78.72C400.296 78.1467 400.629 77.6533 401.083 77.24C401.549 76.8133 402.096 76.48 402.723 76.24C403.349 76 404.029 75.88 404.763 75.88C405.656 75.88 406.443 76.0467 407.123 76.38C407.803 76.7 408.329 77.1533 408.703 77.74C409.089 78.3133 409.283 78.9867 409.283 79.76V87H406.803V85.14L407.363 85.1C407.083 85.5667 406.749 85.96 406.363 86.28C405.976 86.5867 405.536 86.8267 405.043 87C404.549 87.16 404.003 87.24 403.403 87.24ZM411.704 87V71.86H414.324V87H411.704Z" fill="#20484F"/>
<rect x="161" y="112" width="273" height="11" rx="5.5" fill="#20484F" fill-opacity="0.1"/>
<rect x="161" y="135" width="182" height="11" rx="5.5" fill="#20484F" fill-opacity="0.1"/>
<rect x="161" y="170" width="110" height="37" rx="8" fill="#B8E4DA"/>
</g>
<defs>
<filter id="filter0_d_4243_157" x="0" y="0" width="512" height="273" filterUnits="userSpaceOnUse" color-interpolation-filters="sRGB">
<feFlood flood-opacity="0" result="BackgroundImageFix"/>
<feColorMatrix in="SourceAlpha" type="matrix" values="0 0 0 0 0 0 0 0 0 0 0 0 0 0 0 0 0 0 127 0" result="hardAlpha"/>
<feOffset dy="2"/>
<feGaussianBlur stdDeviation="20"/>
<feComposite in2="hardAlpha" operator="out"/>
<feColorMatrix type="matrix" values="0 0 0 0 0.741667 0 0 0 0 0.741667 0 0 0 0 0.741667 0 0 0 0.11 0"/>
<feBlend mode="normal" in2="BackgroundImageFix" result="effect1_dropShadow_4243_157"/>
<feBlend mode="normal" in="SourceGraphic" in2="effect1_dropShadow_4243_157" result="shape"/>
</filter>
<filter id="filter1_d_4243_157" x="0" y="2" width="512" height="273" filterUnits="userSpaceOnUse" color-interpolation-filters="sRGB">
<feFlood flood-opacity="0" result="BackgroundImageFix"/>
<feColorMatrix in="SourceAlpha" type="matrix" values="0 0 0 0 0 0 0 0 0 0 0 0 0 0 0 0 0 0 127 0" result="hardAlpha"/>
<feOffset dy="4"/>
<feGaussianBlur stdDeviation="20"/>
<feComposite in2="hardAlpha" operator="out"/>
<feColorMatrix type="matrix" values="0 0 0 0 0.541667 0 0 0 0 0.541667 0 0 0 0 0.541667 0 0 0 0.04 0"/>
<feBlend mode="normal" in2="BackgroundImageFix" result="effect1_dropShadow_4243_157"/>
<feBlend mode="normal" in="SourceGraphic" in2="effect1_dropShadow_4243_157" result="shape"/>
</filter>
<clipPath id="clip0_4243_157">
<rect width="34" height="34" fill="white" transform="translate(86 81)"/>
</clipPath>
</defs>
</svg>
